<?xml version="1.0" encoding="UTF-8"?><svg xmlns="http://www.w3.org/2000/svg" xmlns:xlink="http://www.w3.org/1999/xlink" width="37.5" zoomAndPan="magnify" viewBox="0 0 37.5 37.499999" height="37.499999" preserveAspectRatio="xMidYMid meet" version="1.0"><defs><clipPath id="clip-0"><path d="M 7.804688 0 L 29.554688 0 L 29.554688 37.007812 L 7.804688 37.007812 Z M 7.804688 0 " clip-rule="nonzero"/></clipPath></defs><g clip-path="url(#clip-0)"><path fill="rgb(14.118958%, 18.429565%, 18.03894%)" d="M 24.113281 37.5 C 23.933594 37.5 23.757812 37.4375 23.613281 37.316406 L 22.117188 36.046875 L 21.941406 36.113281 L 21.621094 36.472656 L 21.449219 36.972656 C 21.34375 37.289062 21.046875 37.5 20.71875 37.5 L 20.039062 37.5 C 19.84375 37.5 19.65625 37.425781 19.511719 37.292969 L 18.832031 36.667969 C 18.738281 36.578125 18.664062 36.46875 18.621094 36.34375 L 18.207031 35.117188 C 18.152344 34.949219 18.152344 34.765625 18.214844 34.597656 L 18.398438 34.085938 L 18.023438 33.441406 C 18 33.402344 17.984375 33.363281 17.96875 33.324219 L 17.601562 32.363281 L 16.578125 32.023438 C 16.46875 31.988281 16.371094 31.929688 16.289062 31.851562 L 13.488281 29.179688 C 13.296875 28.996094 13.210938 28.722656 13.261719 28.460938 L 13.550781 26.996094 C 13.582031 26.84375 13.65625 26.707031 13.765625 26.597656 L 14.65625 25.699219 L 14.738281 25.203125 L 14.507812 25 L 12.859375 25 C 12.621094 25 12.398438 24.890625 12.25 24.707031 L 11.863281 24.21875 C 11.753906 24.078125 11.695312 23.90625 11.695312 23.730469 L 11.695312 22.640625 L 10.804688 21.917969 C 10.773438 21.890625 10.742188 21.863281 10.714844 21.832031 L 8.667969 19.523438 C 8.59375 19.441406 8.539062 19.34375 8.503906 19.238281 L 7.847656 17.128906 C 7.824219 17.050781 7.8125 16.972656 7.8125 16.894531 L 7.8125 15.625 C 7.8125 15.5 7.839844 15.378906 7.898438 15.269531 L 8.238281 14.597656 C 8.296875 14.480469 8.382812 14.382812 8.488281 14.308594 L 8.589844 14.238281 L 8.589844 13.867188 C 8.589844 13.660156 8.671875 13.460938 8.816406 13.316406 L 9.398438 12.730469 C 9.507812 12.621094 9.644531 12.546875 9.796875 12.515625 L 10.140625 12.445312 L 10.140625 12.304688 C 10.140625 12.222656 10.15625 12.136719 10.179688 12.058594 L 10.375 11.472656 C 10.429688 11.308594 10.539062 11.164062 10.679688 11.070312 L 10.917969 10.910156 L 10.917969 10.574219 L 10.679688 10.414062 C 10.558594 10.335938 10.460938 10.21875 10.402344 10.085938 L 10.21875 9.675781 C 10.148438 9.511719 10.132812 9.324219 10.179688 9.148438 L 10.484375 8.035156 C 10.5625 7.75 10.789062 7.535156 11.074219 7.476562 L 12.527344 7.171875 L 13.390625 6.699219 L 14.003906 4.644531 L 13.878906 3.964844 L 13.261719 3.242188 C 13.207031 3.179688 13.164062 3.109375 13.132812 3.03125 L 12.914062 2.496094 L 12.265625 2.316406 C 11.925781 2.222656 11.695312 1.914062 11.695312 1.5625 L 11.695312 0.78125 C 11.695312 0.351562 12.039062 0 12.46875 0 L 26.441406 0 C 26.871094 0 27.21875 0.351562 27.21875 0.78125 L 27.21875 2.15625 L 27.820312 3.355469 C 27.84375 3.398438 27.863281 3.445312 27.875 3.496094 L 28.328125 5.097656 L 28.46875 5.191406 C 28.667969 5.328125 28.792969 5.550781 28.804688 5.796875 L 29.546875 20.273438 C 29.550781 20.394531 29.53125 20.515625 29.480469 20.628906 L 28.769531 22.234375 L 28.769531 22.808594 L 29.417969 23.785156 C 29.5 23.914062 29.546875 24.066406 29.546875 24.21875 L 29.546875 25.78125 C 29.546875 25.964844 29.484375 26.140625 29.367188 26.28125 L 28.601562 27.210938 L 28.066406 28.246094 C 28.039062 28.300781 28.003906 28.351562 27.964844 28.398438 L 27.417969 29.03125 L 27.1875 31.195312 C 27.175781 31.285156 27.152344 31.375 27.109375 31.460938 L 26.84375 31.992188 C 26.796875 32.089844 26.722656 32.179688 26.636719 32.25 L 26.441406 32.40625 L 26.441406 33.59375 C 26.441406 33.972656 26.171875 34.296875 25.804688 34.363281 L 25.136719 34.484375 L 24.972656 34.578125 L 25.464844 35.164062 C 25.578125 35.296875 25.640625 35.46875 25.648438 35.644531 L 25.664062 36.203125 C 25.675781 36.484375 25.535156 36.746094 25.300781 36.894531 L 24.523438 37.382812 C 24.398438 37.460938 24.257812 37.5 24.113281 37.5 Z M 24.113281 37.5 " fill-opacity="1" fill-rule="nonzero"/></g></svg>