<?xml version="1.0" encoding="UTF-8"?><svg xmlns="http://www.w3.org/2000/svg" xmlns:xlink="http://www.w3.org/1999/xlink" width="37.5" zoomAndPan="magnify" viewBox="0 0 37.5 37.499999" height="37.499999" preserveAspectRatio="xMidYMid meet" version="1.0"><defs><clipPath id="clip-0"><path d="M 6.257812 0 L 31 0 L 31 37.007812 L 6.257812 37.007812 Z M 6.257812 0 " clip-rule="nonzero"/></clipPath></defs><g clip-path="url(#clip-0)"><path fill="rgb(14.118958%, 18.429565%, 18.03894%)" d="M 30.195312 0.078125 L 16.320312 0.078125 C 16.234375 0.078125 16.148438 0.09375 16.066406 0.121094 L 14.527344 0.667969 C 14.433594 0.699219 14.347656 0.753906 14.273438 0.820312 L 13.59375 1.421875 L 13.417969 1.492188 L 12.242188 0.304688 C 12.023438 0.0859375 11.699219 0.0195312 11.414062 0.132812 C 11.128906 0.246094 10.9375 0.515625 10.925781 0.828125 L 10.160156 21.664062 L 9.464844 23.070312 C 9.410156 23.175781 9.382812 23.296875 9.382812 23.417969 L 9.382812 24.972656 C 9.382812 25.117188 9.421875 25.257812 9.496094 25.378906 L 10.15625 26.464844 L 10.15625 28.328125 L 9 29.6875 C 8.972656 29.71875 8.949219 29.746094 8.929688 29.78125 L 8.0625 31.1875 L 7.050781 32.195312 C 6.949219 32.296875 6.875 32.429688 6.84375 32.574219 L 6.433594 34.375 C 6.421875 34.417969 6.417969 34.464844 6.414062 34.507812 L 6.300781 36.601562 C 6.285156 36.886719 6.429688 37.160156 6.671875 37.308594 C 6.796875 37.386719 6.933594 37.421875 7.070312 37.421875 C 7.210938 37.421875 7.347656 37.386719 7.46875 37.3125 L 8.574219 36.644531 L 12.097656 36.644531 L 13.125 37.285156 C 13.464844 37.496094 13.914062 37.410156 14.152344 37.082031 L 14.871094 36.089844 L 15.515625 35.929688 L 16.238281 36.484375 C 16.371094 36.589844 16.535156 36.644531 16.703125 36.644531 L 17.597656 36.644531 C 18 36.644531 18.332031 36.332031 18.363281 35.925781 L 18.425781 35.144531 L 19.085938 34.710938 L 19.144531 34.875 C 19.234375 35.117188 19.4375 35.296875 19.683594 35.359375 L 21.628906 35.84375 C 21.953125 35.921875 22.289062 35.785156 22.464844 35.5 L 23.136719 34.417969 C 23.214844 34.292969 23.257812 34.152344 23.257812 34.003906 L 23.257812 33.480469 L 24.472656 32.609375 C 24.5 32.59375 24.523438 32.570312 24.546875 32.550781 L 26.230469 30.996094 C 26.339844 30.894531 26.417969 30.765625 26.453125 30.621094 L 26.714844 29.636719 L 27.277344 29.636719 C 27.386719 29.632812 27.496094 29.609375 27.597656 29.5625 L 29.285156 28.777344 C 29.316406 28.761719 29.339844 28.75 29.367188 28.734375 L 30.597656 27.972656 C 30.824219 27.828125 30.964844 27.578125 30.964844 27.308594 L 30.964844 26.59375 C 30.964844 26.386719 30.882812 26.1875 30.738281 26.042969 C 30.738281 26.042969 30.390625 25.742188 30.257812 25.613281 C 30.21875 25.574219 30.195312 25.535156 30.195312 25.460938 C 30.195312 25.390625 30.21875 25.339844 30.25 25.300781 C 30.261719 25.285156 30.738281 24.746094 30.738281 24.746094 C 30.882812 24.546875 30.964844 24.402344 30.964844 24.195312 L 30.964844 0.855469 C 30.964844 0.425781 30.621094 0.078125 30.195312 0.078125 Z M 30.195312 0.078125 " fill-opacity="1" fill-rule="nonzero"/></g></svg>