<?xml version="1.0" encoding="UTF-8"?><svg xmlns="http://www.w3.org/2000/svg" xmlns:xlink="http://www.w3.org/1999/xlink" width="37.5" zoomAndPan="magnify" viewBox="0 0 37.5 37.499999" height="37.499999" preserveAspectRatio="xMidYMid meet" version="1.0"><defs><clipPath id="clip-0"><path d="M 0 6 L 37.007812 6 L 37.007812 31.5 L 0 31.5 Z M 0 6 " clip-rule="nonzero"/></clipPath></defs><g clip-path="url(#clip-0)"><path fill="rgb(14.118958%, 18.429565%, 18.03894%)" d="M 29.941406 31.472656 C 29.75 31.472656 29.558594 31.402344 29.410156 31.253906 L 27.914062 29.757812 C 27.824219 29.667969 27.757812 29.554688 27.722656 29.433594 L 25.628906 29.957031 C 25.570312 29.96875 25.511719 29.976562 25.449219 29.976562 L 5.238281 29.976562 C 4.933594 29.976562 4.660156 29.792969 4.542969 29.507812 L 3.796875 27.636719 C 3.761719 27.546875 3.742188 27.453125 3.742188 27.359375 L 3.742188 25.167969 L 3.238281 23.933594 C 3.210938 23.867188 3.191406 23.800781 3.183594 23.730469 L 3 22.078125 L 2.320312 20.945312 C 2.273438 20.867188 2.242188 20.777344 2.226562 20.6875 L 1.941406 19.027344 L 1.351562 16.6875 L 1.007812 14.71875 L 0.0976562 13.132812 C -0.0273438 12.917969 -0.03125 12.652344 0.078125 12.425781 L 1.335938 9.917969 L 0.21875 8.800781 C 0.078125 8.660156 0 8.46875 0 8.269531 L 0 7.523438 C 0 7.355469 0.0546875 7.191406 0.160156 7.0625 L 0.730469 6.332031 C 0.871094 6.148438 1.089844 6.042969 1.320312 6.042969 L 29.9375 6.027344 C 29.941406 6.027344 29.941406 6.027344 29.941406 6.027344 C 30.210938 6.027344 30.460938 6.171875 30.59375 6.40625 L 31.148438 7.398438 L 31.832031 7.824219 C 32.050781 7.957031 32.1875 8.199219 32.1875 8.457031 L 32.1875 8.972656 C 32.1875 9.113281 32.144531 9.253906 32.066406 9.375 L 31.4375 10.359375 L 31.4375 11.003906 L 31.90625 11.589844 L 32.515625 11.859375 L 33.285156 12.03125 C 33.484375 12.078125 33.65625 12.203125 33.761719 12.375 L 34.324219 13.3125 C 34.394531 13.429688 34.429688 13.5625 34.429688 13.699219 L 34.429688 14.15625 L 34.90625 14.289062 C 35.0625 14.332031 35.203125 14.425781 35.300781 14.554688 L 35.609375 14.953125 C 35.671875 15.039062 35.71875 15.136719 35.742188 15.242188 L 35.835938 15.648438 L 36.980469 16.695312 C 37.085938 16.792969 37.164062 16.921875 37.199219 17.0625 L 37.402344 17.851562 C 37.425781 17.945312 37.429688 18.039062 37.417969 18.132812 L 37.230469 19.59375 C 37.21875 19.679688 37.195312 19.765625 37.152344 19.84375 L 36.203125 21.667969 C 36.144531 21.777344 36.0625 21.871094 35.960938 21.941406 L 34.667969 22.828125 C 34.582031 22.890625 34.480469 22.929688 34.375 22.949219 L 33.234375 23.152344 L 32.933594 24.117188 L 33.425781 24.546875 C 33.589844 24.691406 33.683594 24.894531 33.683594 25.113281 L 33.683594 26.234375 C 33.683594 26.460938 33.578125 26.675781 33.402344 26.820312 L 32.1875 27.800781 L 32.1875 28.292969 C 32.1875 28.597656 32 28.875 31.714844 28.988281 L 31.4375 29.105469 L 31.4375 29.976562 C 31.4375 30.175781 31.359375 30.367188 31.21875 30.507812 L 30.46875 31.253906 C 30.324219 31.402344 30.132812 31.472656 29.941406 31.472656 Z M 29.941406 31.472656 " fill-opacity="1" fill-rule="nonzero"/></g></svg>