<?xml version="1.0" encoding="UTF-8"?><svg xmlns="http://www.w3.org/2000/svg" xmlns:xlink="http://www.w3.org/1999/xlink" width="37.5" zoomAndPan="magnify" viewBox="0 0 37.5 37.499999" height="37.499999" preserveAspectRatio="xMidYMid meet" version="1.0"><defs><clipPath id="clip-0"><path d="M 0 9.050781 L 37.007812 9.050781 L 37.007812 28.550781 L 0 28.550781 Z M 0 9.050781 " clip-rule="nonzero"/></clipPath></defs><g clip-path="url(#clip-0)"><path fill="rgb(14.118958%, 18.429565%, 18.03894%)" d="M 21.097656 9.644531 L 21.125 9.851562 L 21.28125 10.007812 L 21.382812 10.082031 L 21.40625 10.1875 L 21.382812 10.3125 L 21.226562 10.519531 L 21.175781 10.597656 L 21.253906 10.648438 L 21.328125 10.699219 L 21.558594 10.675781 L 21.664062 10.699219 L 21.664062 10.800781 L 21.609375 10.929688 L 21.558594 11.007812 L 21.535156 11.136719 L 21.636719 11.367188 L 21.558594 11.390625 L 21.148438 11.390625 L 20.96875 11.441406 L 20.660156 11.621094 L 19.996094 12.164062 L 19.789062 12.242188 L 19.6875 12.1875 L 19.484375 12.007812 L 19.378906 11.984375 L 19.070312 11.984375 L 18.480469 12.113281 L 18.402344 12.1875 L 18.402344 12.292969 L 18.457031 12.445312 L 18.507812 12.523438 L 18.609375 12.90625 L 18.738281 13.164062 L 18.738281 13.292969 L 18.660156 13.394531 L 18.351562 13.703125 L 18.300781 13.832031 L 18.222656 13.910156 L 17.992188 13.933594 L 17.890625 13.984375 L 17.761719 14.191406 L 17.710938 14.78125 L 17.632812 15.011719 L 17.453125 15.167969 L 17.375 15.246094 L 17.171875 15.320312 L 17.121094 15.320312 L 17.09375 15.269531 L 17.070312 15.246094 L 16.992188 15.246094 L 16.914062 15.21875 L 16.863281 15.246094 L 16.8125 15.320312 L 16.734375 15.605469 L 16.605469 15.734375 L 16.554688 15.835938 L 16.503906 15.988281 L 16.503906 16.117188 L 16.53125 16.761719 L 16.503906 16.941406 L 16.480469 16.992188 L 16.429688 17.042969 L 16.375 17.09375 L 16.324219 17.144531 L 16.09375 17.222656 L 15.964844 17.277344 L 15.941406 17.402344 L 15.886719 17.457031 L 15.761719 17.378906 L 15.554688 17.171875 L 15.167969 17.171875 L 15.066406 17.121094 L 14.988281 17.070312 L 14.757812 16.964844 L 14.683594 16.914062 L 14.632812 16.8125 L 14.605469 16.710938 L 14.582031 16.453125 L 14.527344 16.375 L 14.246094 16.195312 L 14.144531 16.144531 L 14.042969 16.144531 L 13.992188 16.195312 L 14.066406 16.324219 L 14.171875 16.375 L 14.273438 16.402344 L 14.324219 16.425781 L 14.246094 16.554688 L 14.042969 16.65625 L 13.914062 16.683594 L 13.863281 16.683594 L 13.839844 16.605469 L 13.8125 16.582031 L 13.738281 16.554688 L 13.683594 16.582031 L 13.660156 16.632812 L 13.683594 16.710938 L 13.785156 16.785156 L 13.8125 16.863281 L 13.8125 17.019531 L 13.734375 17.09375 L 13.632812 17.148438 L 13.503906 17.171875 L 13.453125 17.222656 L 13.453125 17.378906 L 13.503906 17.789062 L 13.503906 17.890625 L 13.425781 17.96875 L 13.171875 18.046875 L 13.144531 18.148438 L 13.171875 18.277344 L 13.117188 18.429688 L 13.015625 18.507812 L 12.914062 18.507812 L 12.835938 18.457031 L 12.863281 18.328125 L 12.886719 18.199219 L 12.785156 18.175781 L 12.578125 18.253906 L 12.398438 18.226562 L 12.21875 18.125 L 12.089844 17.96875 L 12.039062 17.789062 L 11.9375 17.6875 L 11.757812 17.765625 L 11.578125 17.945312 L 11.476562 18.074219 L 11.398438 18.097656 L 11.117188 18.175781 L 11.003906 18.226562 L 10.953125 18.277344 L 10.902344 18.351562 L 10.851562 18.457031 L 10.75 18.890625 L 10.671875 19.046875 L 10.519531 19.175781 L 10.46875 19.148438 L 10.414062 19.097656 L 10.335938 19.023438 L 10.285156 18.945312 L 10.285156 18.867188 L 10.234375 18.816406 L 10.183594 18.789062 L 10.003906 18.789062 L 9.953125 18.765625 L 9.773438 18.660156 L 9.414062 18.558594 L 9.3125 18.480469 L 9.207031 18.429688 L 9.082031 18.351562 L 8.953125 18.300781 L 8.851562 18.277344 L 8.644531 18.351562 L 8.441406 18.507812 L 8.230469 18.558594 L 8.027344 18.402344 L 8.027344 18.351562 L 8 18.222656 L 7.976562 18.171875 L 7.898438 18.171875 L 7.875 18.222656 L 7.851562 18.300781 L 7.875 18.457031 L 8.003906 18.636719 L 8.027344 18.761719 L 8.003906 18.941406 L 7.875 19.121094 L 7.71875 19.175781 L 7.617188 19.121094 L 7.59375 19.019531 L 7.617188 18.789062 L 7.59375 18.710938 L 7.539062 18.660156 L 7.4375 18.6875 L 7.359375 18.738281 L 7.332031 18.789062 L 7.28125 18.789062 L 7.074219 18.867188 L 6.972656 18.890625 L 6.871094 18.890625 L 6.769531 18.839844 L 6.664062 18.789062 L 6.585938 18.6875 L 6.484375 18.609375 L 6.382812 18.609375 L 6.28125 18.660156 L 6.253906 18.816406 L 6.28125 18.894531 L 6.484375 19.253906 L 6.253906 19.5625 L 6.230469 19.613281 L 6.152344 19.585938 L 5.945312 19.484375 L 5.84375 19.460938 L 5.742188 19.484375 L 5.714844 19.5625 L 5.742188 19.691406 L 5.691406 19.84375 L 5.613281 19.945312 L 5.355469 20.230469 L 5.304688 20.308594 L 5.25 20.460938 L 5.226562 20.617188 L 5.277344 20.742188 L 5.355469 20.921875 L 5.40625 20.949219 L 5.5625 21.101562 L 5.691406 21.386719 L 5.664062 21.566406 L 5.507812 21.691406 L 4.585938 21.921875 L 4.304688 22.128906 L 4.199219 22.152344 L 3.96875 22.179688 L 3.867188 22.203125 L 3.789062 22.257812 L 3.710938 22.335938 L 3.660156 22.4375 L 3.582031 22.71875 L 3.582031 22.976562 L 3.660156 23.207031 L 3.789062 23.414062 L 3.96875 23.617188 L 4.070312 23.824219 L 4.09375 24.027344 L 3.992188 24.3125 L 3.863281 24.464844 L 3.660156 24.515625 L 3.453125 24.464844 L 3.070312 24.261719 L 1.582031 23.667969 L 1.324219 23.644531 L 1.089844 23.695312 L 0.886719 23.796875 L 0.707031 23.953125 L 0.65625 24.03125 L 0.5 24.390625 L 0.347656 24.59375 L 0.246094 24.800781 L 0.269531 24.980469 L 0.371094 25.132812 L 0.578125 25.339844 L 0.601562 25.441406 L 0.601562 26.007812 L 0.578125 26.058594 L 0.550781 26.109375 L 0.5 26.1875 L 0.476562 26.265625 L 0.5 26.390625 L 0.601562 26.625 L 0.628906 26.75 L 0.601562 26.933594 L 0.421875 27.417969 L 0.320312 27.804688 L 0.21875 27.984375 L 0.0898438 28.0625 L -0.0898438 28.007812 L -0.21875 27.90625 L -0.371094 27.753906 L -0.5 27.648438 L -0.550781 27.703125 L -0.578125 27.726562 L -0.628906 27.855469 L -0.679688 28.085938 L -0.679688 28.1875 L -0.757812 28.5 L -0.785156 28.574219 L 0.140625 28.523438 L 1.039062 28.445312 L 1.9375 28.394531 L 2.839844 28.316406 L 3.761719 28.265625 L 5.558594 28.109375 L 6.460938 28.035156 L 6.460938 27.652344 L 6.433594 27.546875 L 6.332031 27.214844 L 6.226562 26.90625 L 6.203125 26.855469 L 6.203125 26.804688 L 7.28125 26.804688 L 7.332031 26.828125 L 7.355469 26.855469 L 7.410156 26.933594 L 7.433594 26.980469 L 7.460938 27.007812 L 7.484375 26.980469 L 7.691406 26.957031 L 7.765625 26.957031 L 7.972656 26.933594 L 8.28125 26.90625 L 8.667969 26.882812 L 9.15625 26.828125 L 9.667969 26.777344 L 10.234375 26.699219 L 11.414062 26.597656 L 11.980469 26.519531 L 12.492188 26.46875 L 12.957031 26.417969 L 13.367188 26.363281 L 13.671875 26.339844 L 13.878906 26.3125 L 13.929688 26.3125 L 14.160156 26.289062 L 14.339844 26.238281 L 14.390625 26.210938 L 14.625 26.210938 L 14.777344 26.1875 L 15.242188 26.160156 L 15.933594 26.109375 L 16.832031 26.058594 L 17.886719 25.980469 L 19.070312 25.902344 L 20.351562 25.800781 L 21.664062 25.695312 L 22.972656 25.59375 L 24.230469 25.492188 L 25.4375 25.390625 L 26.492188 25.285156 L 27.390625 25.210938 L 28.085938 25.15625 L 28.519531 25.105469 L 28.699219 25.082031 L 28.933594 25.054688 L 29.113281 25.003906 L 29.265625 24.902344 L 29.445312 24.671875 L 29.550781 24.621094 L 29.574219 24.621094 L 30.011719 24.386719 L 30.523438 24.261719 L 30.574219 24.234375 L 30.601562 24.210938 L 30.652344 24.132812 L 30.859375 24.003906 L 31.371094 23.746094 L 31.886719 23.59375 L 31.9375 23.566406 L 31.964844 23.542969 L 31.964844 23.464844 L 31.9375 23.414062 L 31.9375 23.359375 L 31.988281 23.285156 L 32.042969 23.230469 L 32.09375 23 L 32.195312 22.871094 L 32.222656 22.847656 L 32.246094 22.847656 L 32.476562 22.796875 L 32.785156 22.640625 L 33.066406 22.460938 L 33.144531 22.410156 L 33.171875 22.382812 L 33.171875 22.332031 L 33.195312 22.28125 L 33.195312 22.152344 L 33.171875 22.074219 L 33.171875 22.050781 L 33.144531 21.949219 L 33.171875 21.894531 L 33.222656 21.820312 L 33.324219 21.714844 L 33.761719 21.433594 L 33.8125 21.382812 L 33.8125 21.355469 L 33.839844 21.332031 L 33.839844 21.203125 L 33.8125 21.046875 L 33.789062 20.96875 L 33.789062 20.917969 L 33.8125 20.839844 L 33.890625 20.738281 L 34.121094 20.535156 L 34.636719 20.171875 L 35.023438 19.917969 L 35.355469 19.6875 L 35.484375 19.585938 L 35.867188 19.148438 L 36.304688 18.636719 L 36.5625 18.328125 L 36.945312 17.890625 L 37.203125 17.609375 L 37.101562 17.554688 L 37.050781 17.554688 L 36.894531 17.632812 L 36.84375 17.632812 L 36.40625 17.554688 L 36.328125 17.53125 L 36.304688 17.507812 L 36.304688 17.453125 L 36.277344 17.429688 L 36.277344 17.378906 L 36.253906 17.351562 L 36.253906 17.328125 L 36.199219 17.300781 L 36.019531 17.175781 L 35.945312 17.175781 L 35.917969 17.199219 L 35.792969 17.070312 L 35.738281 17.019531 L 35.6875 16.996094 L 35.664062 16.996094 L 35.457031 16.945312 L 35.40625 16.917969 L 35.378906 16.894531 L 35.328125 16.789062 L 35.226562 16.585938 L 35.226562 16.558594 L 35.203125 16.507812 L 35.175781 16.457031 L 35.097656 16.378906 L 34.714844 16.097656 L 34.6875 16.070312 L 34.6875 16.019531 L 34.664062 15.96875 L 34.613281 15.761719 L 34.585938 15.710938 L 34.5625 15.683594 L 34.511719 15.609375 L 34.460938 15.558594 L 34.230469 15.429688 L 34.179688 15.378906 L 34.179688 15.351562 L 34.230469 15.25 L 34.253906 15.226562 L 34.253906 15.199219 L 34.230469 15.148438 L 34.203125 15.125 L 34.179688 15.070312 L 34.15625 15.046875 L 33.847656 14.839844 L 33.792969 14.816406 L 33.769531 14.738281 L 33.71875 14.660156 L 33.695312 14.609375 L 33.230469 14.121094 L 33.207031 14.070312 L 33.179688 14.019531 L 33.179688 13.96875 L 33.207031 13.96875 L 33.207031 13.941406 L 33.285156 13.867188 L 33.335938 13.8125 L 33.335938 13.710938 L 33.308594 13.609375 L 33.308594 13.582031 L 33.335938 13.558594 L 33.335938 13.53125 L 33.359375 13.507812 L 33.414062 13.507812 L 33.4375 13.480469 L 33.4375 13.34375 L 33.414062 13.269531 L 33.414062 12.984375 L 33.359375 12.90625 L 33.257812 12.703125 L 33.234375 12.675781 L 33.234375 12.625 L 33.207031 12.445312 L 33.207031 12.34375 L 33.128906 12.265625 L 33.027344 12.085938 L 32.949219 11.984375 L 32.539062 11.675781 L 32.324219 11.574219 L 32.066406 11.519531 L 31.835938 11.417969 L 31.65625 11.1875 L 31.476562 10.777344 L 31.449219 10.648438 L 31.425781 10.519531 L 31.398438 10.441406 L 31.324219 10.390625 L 31.195312 10.441406 L 30.910156 10.648438 L 30.78125 10.671875 L 30.679688 10.726562 L 30.628906 10.800781 L 30.550781 10.90625 L 30.5 10.980469 L 30.371094 11.058594 L 30.320312 11.113281 L 30.320312 11.160156 L 30.265625 11.289062 L 30.242188 11.367188 L 30.164062 11.445312 L 30.0625 11.46875 L 29.804688 11.445312 L 29.703125 11.46875 L 29.625 11.523438 L 29.574219 11.597656 L 29.394531 11.648438 L 29.371094 11.648438 L 29.292969 11.574219 L 29.140625 11.390625 L 29.085938 11.367188 L 29.035156 11.316406 L 28.882812 11.261719 L 28.804688 11.261719 L 28.625 11.289062 L 28.574219 11.261719 L 28.46875 11.210938 L 28.367188 11.132812 L 28.265625 11.109375 L 28.136719 11.109375 L 27.804688 11.289062 L 27.75 11.339844 L 27.75 11.46875 L 27.699219 11.574219 L 27.625 11.675781 L 27.519531 11.699219 L 27.289062 11.699219 L 27.082031 11.574219 L 26.699219 11.265625 L 26.597656 11.1875 L 26.519531 11.058594 L 26.417969 10.980469 L 26.210938 10.957031 L 25.980469 10.878906 L 25.851562 10.878906 L 25.414062 11.03125 L 25.3125 11.03125 L 24.722656 10.878906 L 24.59375 10.800781 L 24.542969 10.699219 L 24.515625 10.542969 L 24.464844 10.417969 L 24.414062 10.3125 L 24.363281 10.210938 L 24.308594 10.132812 L 24.230469 10.082031 L 24.15625 10.03125 L 24.128906 9.929688 L 24.105469 9.824219 L 24.050781 9.699219 L 23.976562 9.597656 L 23.898438 9.542969 L 23.667969 9.441406 L 23.539062 9.414062 L 23.4375 9.414062 L 23.386719 9.363281 L 23.308594 9.234375 L 23.230469 9.132812 L 23.101562 9.082031 L 22.898438 9.160156 L 22.488281 9.414062 L 22.28125 9.414062 L 21.972656 9.183594 L 21.898438 9.132812 L 21.871094 9.132812 L 21.792969 9.03125 L 21.691406 9.03125 L 21.640625 9.082031 L 21.585938 9.183594 L 21.304688 9.390625 L 21.226562 9.464844 L 21.097656 9.644531 " fill-opacity="1" fill-rule="nonzero"/></g></svg>