<?xml version="1.0" encoding="UTF-8"?><svg xmlns="http://www.w3.org/2000/svg" xmlns:xlink="http://www.w3.org/1999/xlink" width="37.5" zoomAndPan="magnify" viewBox="0 0 37.5 37.499999" height="37.499999" preserveAspectRatio="xMidYMid meet" version="1.0"><defs><clipPath id="clip-0"><path d="M 0 0.75 L 37.007812 0.75 L 37.007812 36.75 L 0 36.75 Z M 0 0.75 " clip-rule="nonzero"/></clipPath></defs><g clip-path="url(#clip-0)"><path fill="rgb(14.118958%, 18.429565%, 18.03894%)" d="M 10.5 0.75 C 10.382812 0.75 10.269531 0.777344 10.164062 0.828125 L 9.164062 1.332031 L 7.664062 2.269531 C 7.621094 2.296875 7.582031 2.328125 7.542969 2.363281 L 6.058594 3.78125 L 5.015625 4.5 L 3.75 4.5 C 3.609375 4.5 3.472656 4.539062 3.351562 4.613281 L 1.917969 5.511719 L 0.488281 6.046875 C 0.207031 6.152344 0.015625 6.414062 0 6.710938 C -0.015625 7.007812 0.148438 7.289062 0.414062 7.421875 L 1.210938 7.820312 L 1.328125 8.394531 C 1.378906 8.660156 1.570312 8.878906 1.828125 8.960938 L 5.933594 10.328125 L 7.074219 11.117188 C 7.199219 11.203125 7.347656 11.25 7.5 11.25 L 9.75 11.25 L 9.75 11.53125 C 9.75 11.859375 9.960938 12.148438 10.277344 12.246094 L 11.25 12.550781 L 11.25 14.25 C 11.25 14.3125 11.257812 14.371094 11.273438 14.429688 L 11.460938 15.179688 C 11.484375 15.277344 11.527344 15.371094 11.585938 15.449219 L 12.148438 16.199219 C 12.292969 16.390625 12.515625 16.5 12.75 16.5 C 12.765625 16.5 12.785156 16.5 12.796875 16.496094 C 13.050781 16.480469 13.28125 16.335938 13.402344 16.113281 L 14.394531 14.335938 L 15.175781 12.648438 L 15.550781 11.945312 L 15.878906 12.425781 C 16.003906 12.605469 16.203125 12.722656 16.421875 12.746094 C 16.636719 12.769531 16.855469 12.695312 17.015625 12.542969 L 18.8125 10.832031 L 21.109375 10.492188 C 21.265625 10.46875 21.414062 10.394531 21.527344 10.28125 L 21.949219 9.859375 L 23.492188 10.378906 L 23.921875 11.078125 C 23.988281 11.183594 24.074219 11.269531 24.175781 11.332031 L 25.113281 11.894531 C 25.230469 11.960938 25.359375 12 25.492188 12 C 25.621094 12 25.75 11.96875 25.867188 11.902344 C 26.105469 11.769531 26.25 11.519531 26.25 11.25 L 26.25 10.445312 C 26.339844 10.480469 26.433594 10.5 26.53125 10.5 L 28.5 10.5 C 28.914062 10.5 29.25 10.164062 29.25 9.75 L 29.25 9 C 29.25 8.75 29.125 8.515625 28.914062 8.375 L 28.058594 7.804688 L 27.738281 5.875 C 27.679688 5.515625 27.367188 5.25 27 5.25 L 26.53125 5.25 C 26.347656 5.25 26.171875 5.316406 26.03125 5.441406 L 25.402344 6 L 24 6 L 24 5.25 C 24 4.851562 23.691406 4.523438 23.292969 4.5 C 22.824219 4.472656 22.128906 4.5 22.097656 4.5 C 21.980469 4.507812 21.863281 4.539062 21.761719 4.59375 L 21.050781 4.988281 L 18.394531 5.253906 C 18.242188 5.269531 18.101562 5.328125 17.984375 5.425781 L 16.652344 6.546875 L 16.097656 6.144531 C 15.886719 5.988281 15.609375 5.957031 15.367188 6.058594 L 14.191406 6.550781 L 13.867188 5.996094 C 13.839844 5.949219 13.808594 5.90625 13.773438 5.867188 L 12.742188 4.742188 C 12.683594 4.679688 12.617188 4.628906 12.539062 4.585938 L 11.132812 3.835938 C 11.027344 3.78125 10.902344 3.75 10.78125 3.75 L 10.6875 3.75 L 10.984375 3.238281 L 12.460938 2.089844 C 12.710938 1.894531 12.8125 1.558594 12.707031 1.257812 C 12.605469 0.953125 12.320312 0.75 12 0.75 Z M 25.492188 12 L 24.09375 12 C 23.910156 12 23.734375 12.066406 23.59375 12.191406 L 22.75 12.941406 C 22.5 13.164062 22.425781 13.53125 22.578125 13.835938 L 22.84375 14.367188 C 22.636719 14.5 22.5 14.734375 22.5 15 L 22.5 17.460938 L 21.472656 17.800781 L 20.960938 16.261719 C 20.84375 15.914062 20.488281 15.703125 20.128906 15.761719 C 19.765625 15.820312 19.5 16.132812 19.5 16.5 L 19.5 17.25 C 19.210938 17.25 18.945312 17.417969 18.820312 17.679688 L 18.070312 19.273438 C 18.023438 19.375 18 19.484375 18 19.59375 L 18 21.585938 L 17.308594 23.082031 C 17.210938 23.292969 17.21875 23.539062 17.324219 23.746094 L 17.855469 24.757812 L 17.414062 25.3125 C 17.25 25.515625 17.207031 25.785156 17.289062 26.03125 L 18.574219 29.609375 L 18.746094 31.148438 L 18.660156 32.867188 L 18.265625 34.128906 L 17.804688 34.667969 C 17.757812 34.722656 17.71875 34.785156 17.6875 34.851562 L 17.3125 35.695312 C 17.210938 35.925781 17.230469 36.195312 17.371094 36.410156 C 17.507812 36.621094 17.746094 36.75 18 36.75 L 33 36.75 C 33.285156 36.75 33.542969 36.589844 33.671875 36.335938 L 34.421875 34.835938 C 34.453125 34.773438 34.472656 34.707031 34.488281 34.636719 L 34.714844 33.429688 L 35.503906 32.855469 C 35.667969 32.738281 35.773438 32.5625 35.804688 32.363281 L 35.914062 31.648438 L 36.609375 31.492188 C 36.921875 31.425781 37.152344 31.167969 37.191406 30.851562 L 37.496094 28.308594 C 37.507812 28.199219 37.496094 28.089844 37.464844 27.984375 L 36.730469 25.765625 C 36.726562 25.753906 36.722656 25.742188 36.71875 25.730469 L 35.921875 23.664062 L 35.171875 22.164062 C 35.042969 21.910156 34.785156 21.75 34.5 21.75 L 33.1875 21.75 C 32.976562 21.75 32.773438 21.839844 32.632812 21.996094 L 31.695312 23.027344 C 31.648438 23.078125 31.609375 23.132812 31.578125 23.195312 L 30.921875 24.507812 L 30.707031 24.640625 L 30 24.285156 L 30 22.839844 L 31.242188 21.753906 C 31.324219 21.679688 31.390625 21.59375 31.433594 21.492188 L 32.183594 19.804688 C 32.226562 19.707031 32.25 19.605469 32.25 19.5 L 32.25 17.25 C 32.25 17.050781 32.171875 16.859375 32.03125 16.71875 L 31.808594 16.5 L 32.03125 16.28125 C 32.28125 16.027344 32.324219 15.632812 32.125 15.335938 L 31.375 14.210938 C 31.261719 14.039062 31.085938 13.925781 30.882812 13.886719 L 29.925781 13.714844 L 28.242188 13.234375 L 27.832031 12.550781 C 27.714844 12.359375 27.519531 12.226562 27.292969 12.195312 L 25.980469 12.007812 C 25.945312 12.003906 25.910156 12 25.875 12 Z M 25.492188 12 " fill-opacity="1" fill-rule="nonzero"/></g></svg>