<?xml version="1.0" encoding="UTF-8"?><svg xmlns="http://www.w3.org/2000/svg" xmlns:xlink="http://www.w3.org/1999/xlink" width="37.5" zoomAndPan="magnify" viewBox="0 0 37.5 37.499999" height="37.499999" preserveAspectRatio="xMidYMid meet" version="1.0"><defs><clipPath id="clip-0"><path d="M 0 0.75 L 37.007812 0.75 L 37.007812 36.75 L 0 36.75 Z M 0 0.75 " clip-rule="nonzero"/></clipPath></defs><g clip-path="url(#clip-0)"><path fill="rgb(14.118958%, 18.429565%, 18.03894%)" d="M 33.398438 36.714844 L 29.507812 36.714844 C 29.078125 36.714844 28.730469 36.363281 28.730469 35.933594 L 28.730469 35.152344 C 28.730469 34.945312 28.8125 34.746094 28.957031 34.597656 L 30.25 33.300781 L 29.890625 32.808594 L 4.597656 32.808594 C 4.167969 32.808594 3.820312 32.457031 3.820312 32.027344 L 3.820312 29.683594 L 4.589844 16.488281 L 3.617188 12.933594 L 3.183594 12.546875 C 3.148438 12.515625 3.117188 12.480469 3.085938 12.445312 L 2.289062 11.429688 C 2.269531 11.402344 2.25 11.375 2.234375 11.34375 L 1.59375 10.265625 C 1.496094 10.101562 1.460938 9.90625 1.5 9.714844 L 1.664062 8.867188 C 1.703125 8.667969 1.820312 8.488281 1.988281 8.375 L 2.261719 8.183594 L 2.261719 7.816406 L 1.871094 7.816406 C 1.621094 7.816406 1.386719 7.695312 1.242188 7.492188 L -0.398438 5.214844 C -0.453125 5.140625 -0.492188 5.054688 -0.519531 4.960938 L -0.824219 3.820312 C -0.84375 3.753906 -0.851562 3.6875 -0.851562 3.617188 L -0.851562 3.058594 L -1.515625 1.976562 C -1.664062 1.734375 -1.667969 1.433594 -1.53125 1.1875 C -1.394531 0.9375 -1.132812 0.785156 -0.851562 0.785156 L 20.945312 0.785156 C 21.230469 0.785156 21.496094 0.945312 21.628906 1.199219 L 21.984375 1.863281 L 23.035156 2.855469 C 23.34375 3.144531 23.363281 3.625 23.082031 3.941406 L 22.5 4.597656 L 22.5 5.300781 L 23.523438 7.539062 L 25.703125 9.960938 L 27.589844 11.160156 C 27.8125 11.300781 27.949219 11.550781 27.949219 11.820312 L 27.949219 13.125 L 28.015625 13.277344 L 29.21875 13.28125 C 29.347656 13.28125 29.472656 13.316406 29.589844 13.378906 L 30.660156 13.964844 C 30.960938 14.128906 31.117188 14.472656 31.046875 14.8125 L 30.792969 16.027344 C 30.769531 16.125 30.734375 16.21875 30.675781 16.300781 L 29.75 17.691406 L 29.554688 18.621094 L 30.109375 19.59375 L 31.746094 20.867188 L 33.050781 21.105469 C 33.316406 21.152344 33.535156 21.332031 33.636719 21.578125 L 34.898438 24.703125 C 35.019531 24.996094 34.949219 25.328125 34.730469 25.546875 L 34.386719 25.890625 L 35 26.871094 L 35.40625 27.339844 L 36.027344 27.339844 C 36.296875 27.339844 36.542969 27.480469 36.6875 27.707031 L 37.171875 28.488281 C 37.300781 28.695312 37.328125 28.949219 37.242188 29.175781 L 36.660156 30.738281 C 36.585938 30.9375 36.429688 31.097656 36.234375 31.183594 L 35.726562 31.402344 L 34.957031 32.3125 L 34.957031 33.589844 C 34.957031 33.671875 34.941406 33.757812 34.914062 33.835938 L 34.136719 36.179688 C 34.03125 36.5 33.734375 36.714844 33.398438 36.714844 Z M 33.398438 36.714844 " fill-opacity="1" fill-rule="nonzero"/></g></svg>