<?xml version="1.0" encoding="UTF-8"?><svg xmlns="http://www.w3.org/2000/svg" xmlns:xlink="http://www.w3.org/1999/xlink" width="37.5" zoomAndPan="magnify" viewBox="0 0 37.5 37.499999" height="37.499999" preserveAspectRatio="xMidYMid meet" version="1.0"><defs><clipPath id="clip-0"><path d="M 0 3.75 L 37.007812 3.75 L 37.007812 33.75 L 0 33.75 Z M 0 3.75 " clip-rule="nonzero"/></clipPath></defs><g clip-path="url(#clip-0)"><path fill="rgb(14.118958%, 18.429565%, 18.03894%)" d="M 36.585938 29.582031 L 35.234375 30.417969 L 33.261719 30.417969 L 32.429688 31.25 L 30.765625 31.25 L 30.765625 29.582031 L 31.597656 28.75 L 30.765625 27.082031 L 30.765625 20.417969 L 31.597656 17.917969 L 31.597656 13.75 L 30.765625 12.917969 L 30.765625 9.582031 L 31.597656 8.75 L 31.597656 7.082031 L 30.765625 5.417969 L 30.765625 3.75 L 24.199219 3.75 L 23.257812 4.050781 L 21.6875 5.019531 L 20.664062 5.945312 L 19.546875 7.09375 L 19.125 7.917969 L 16.628906 8.75 L 16.628906 10.417969 L 17.460938 10.832031 L 17.460938 11.25 L 16.628906 11.667969 L 16.628906 12.082031 L 17.460938 12.917969 L 17.460938 13.4375 L 17.171875 13.75 L 16.199219 13.75 L 15.492188 14.234375 L 14.78125 15.070312 L 14.136719 15.417969 L 12.472656 15.417969 L 11.808594 15.578125 L 11.222656 16.25 L 9.660156 15 L 8.316406 14.582031 L 6.652344 14.582031 L 4.15625 15.417969 L 4.15625 17.082031 L 4.988281 17.917969 L 4.988281 18.75 L 4.179688 18.902344 L 3.402344 19.582031 L 3.164062 20.023438 L 1.90625 20.652344 L 1.664062 21.25 L 0 22.082031 L 0 23.75 L 21.078125 23.75 L 21.945312 24.570312 L 22.765625 25.023438 L 23.15625 26.726562 L 23.699219 27.429688 L 24.445312 27.628906 L 25.777344 28.75 L 29.117188 30.417969 L 28.273438 32.082031 L 28.273438 33.332031 L 29.101562 33.75 L 30.800781 33.75 L 33.746094 33.398438 L 38.25 30.417969 Z M 33.355469 31.886719 L 33.375 31.867188 C 33.375 31.871094 33.378906 31.875 33.378906 31.878906 Z M 33.355469 31.886719 " fill-opacity="1" fill-rule="nonzero"/></g></svg>