<?xml version="1.0" encoding="UTF-8"?><svg xmlns="http://www.w3.org/2000/svg" xmlns:xlink="http://www.w3.org/1999/xlink" width="37.5" zoomAndPan="magnify" viewBox="0 0 37.5 37.499999" height="37.499999" preserveAspectRatio="xMidYMid meet" version="1.0"><defs><clipPath id="clip-0"><path d="M 2.589844 0.386719 L 34.839844 0.386719 L 34.839844 37.007812 L 2.589844 37.007812 Z M 2.589844 0.386719 " clip-rule="nonzero"/></clipPath></defs><g clip-path="url(#clip-0)"><path fill="rgb(14.118958%, 18.429565%, 18.03894%)" d="M 20.867188 37.136719 L 19.90625 37.136719 C 19.726562 37.136719 19.550781 37.070312 19.414062 36.945312 L 17.492188 35.199219 C 17.367188 35.089844 17.285156 34.933594 17.257812 34.769531 L 17.183594 34.285156 L 15.480469 35.527344 C 15.191406 35.742188 14.789062 35.707031 14.53125 35.449219 L 13.9375 34.855469 L 12.945312 34.59375 L 12.347656 34.871094 C 12.207031 34.9375 12.050781 34.953125 11.902344 34.925781 L 11.011719 34.761719 C 10.839844 34.726562 10.683594 34.632812 10.574219 34.496094 L 10.070312 33.863281 L 7.601562 33.449219 C 7.285156 33.398438 7.039062 33.144531 6.996094 32.824219 L 6.761719 31.101562 L 6.226562 30.6875 L 5.5625 31.132812 C 5.441406 31.214844 5.300781 31.257812 5.15625 31.257812 L 3.324219 31.257812 C 2.917969 31.257812 2.589844 30.929688 2.589844 30.523438 L 2.589844 4.796875 C 2.589844 4.390625 2.917969 4.0625 3.324219 4.0625 L 13.585938 4.0625 C 13.78125 4.0625 13.964844 4.140625 14.101562 4.277344 L 15.355469 5.53125 L 17.984375 5.53125 C 18.261719 5.53125 18.515625 5.691406 18.640625 5.9375 L 19.167969 7.003906 L 19.960938 7.003906 L 21.972656 5.65625 C 22.09375 5.574219 22.234375 5.53125 22.378906 5.53125 L 25.027344 5.53125 L 27.964844 2.855469 C 28.019531 2.804688 28.082031 2.761719 28.152344 2.730469 L 33.066406 0.453125 C 33.285156 0.351562 33.542969 0.367188 33.753906 0.492188 C 33.960938 0.617188 34.09375 0.839844 34.105469 1.082031 L 34.839844 14.3125 C 34.851562 14.511719 34.777344 14.710938 34.640625 14.855469 C 34.5 15.003906 34.308594 15.085938 34.109375 15.085938 L 33.410156 15.085938 L 34.019531 16.207031 C 34.089844 16.335938 34.121094 16.488281 34.101562 16.636719 L 33.867188 18.839844 L 33.027344 23.339844 C 33.007812 23.445312 32.960938 23.546875 32.898438 23.636719 L 31.753906 25.210938 C 31.726562 25.253906 31.691406 25.289062 31.652344 25.324219 L 30.1875 26.652344 C 30.167969 26.671875 30.144531 26.6875 30.121094 26.707031 L 29.082031 27.445312 C 28.808594 27.640625 28.441406 27.628906 28.183594 27.410156 L 27.851562 27.128906 L 26.046875 29.128906 L 26.046875 29.632812 L 26.613281 30.335938 C 26.789062 30.550781 26.828125 30.84375 26.714844 31.097656 L 26.347656 31.921875 C 26.265625 32.113281 26.105469 32.257812 25.910156 32.320312 L 24.8125 32.691406 C 24.585938 32.765625 24.34375 32.726562 24.152344 32.589844 C 23.960938 32.453125 23.847656 32.234375 23.847656 32 L 23.695312 32.421875 L 23.40625 34.503906 C 23.382812 34.691406 23.285156 34.863281 23.136719 34.980469 L 22.648438 35.367188 L 22.347656 36.34375 C 22.28125 36.566406 22.109375 36.742188 21.890625 36.820312 L 21.109375 37.09375 C 21.03125 37.121094 20.949219 37.136719 20.867188 37.136719 Z M 20.867188 37.136719 " fill-opacity="1" fill-rule="nonzero"/></g></svg>