<?xml version="1.0" encoding="UTF-8"?><svg xmlns="http://www.w3.org/2000/svg" xmlns:xlink="http://www.w3.org/1999/xlink" width="37.5" zoomAndPan="magnify" viewBox="0 0 37.5 37.499999" height="37.499999" preserveAspectRatio="xMidYMid meet" version="1.0"><defs><clipPath id="clip-0"><path d="M 1.210938 7.523438 L 36.460938 7.523438 L 36.460938 30.023438 L 1.210938 30.023438 Z M 1.210938 7.523438 " clip-rule="nonzero"/></clipPath></defs><g clip-path="url(#clip-0)"><path fill="rgb(14.118958%, 18.429565%, 18.03894%)" d="M 29.339844 30.023438 L 7.558594 30.023438 C 7.53125 30.023438 7.5 30.023438 7.472656 30.019531 L 1.851562 29.320312 C 1.5 29.273438 1.234375 28.976562 1.234375 28.625 L 1.234375 21.613281 L 1.941406 10.355469 C 1.953125 10.105469 2.101562 9.882812 2.328125 9.773438 L 3.730469 9.070312 C 3.828125 9.023438 3.9375 8.996094 4.046875 8.996094 L 4.535156 8.996094 L 6.464844 7.710938 C 6.707031 7.550781 7.023438 7.554688 7.261719 7.722656 C 7.5 7.890625 7.609375 8.183594 7.539062 8.464844 L 7.054688 10.398438 L 31.449219 10.398438 C 31.597656 10.398438 31.746094 10.445312 31.867188 10.535156 L 32.695312 11.148438 L 33.625 11.675781 C 33.796875 11.773438 33.921875 11.9375 33.964844 12.128906 L 34.390625 14.035156 L 34.742188 14.445312 L 35.410156 14.628906 C 35.582031 14.675781 35.726562 14.785156 35.820312 14.933594 L 36.257812 15.636719 C 36.453125 15.945312 36.375 16.355469 36.074219 16.574219 L 35.324219 17.117188 L 35.160156 17.863281 C 35.136719 17.972656 35.085938 18.074219 35.015625 18.160156 L 34.257812 19.0625 L 34.257812 19.773438 C 34.257812 19.84375 34.246094 19.910156 34.230469 19.976562 L 33.964844 20.851562 C 33.914062 21.019531 33.804688 21.160156 33.652344 21.25 L 33.554688 21.308594 L 33.554688 21.828125 L 33.804688 21.921875 C 34.007812 21.996094 34.167969 22.167969 34.230469 22.378906 L 34.492188 23.273438 L 36.164062 24.976562 C 36.292969 25.109375 36.367188 25.285156 36.367188 25.46875 L 36.367188 25.820312 C 36.367188 26.066406 36.238281 26.292969 36.027344 26.417969 L 34.703125 27.222656 L 34.085938 27.824219 L 33.429688 28.667969 C 33.339844 28.78125 33.21875 28.863281 33.082031 28.90625 L 31.832031 29.292969 C 31.765625 29.3125 31.695312 29.324219 31.625 29.324219 L 30.910156 29.324219 L 29.652344 29.953125 C 29.558594 30 29.449219 30.023438 29.339844 30.023438 Z M 29.339844 30.023438 " fill-opacity="1" fill-rule="nonzero"/></g></svg>