<?xml version="1.0" encoding="UTF-8"?><svg xmlns="http://www.w3.org/2000/svg" xmlns:xlink="http://www.w3.org/1999/xlink" width="37.5" zoomAndPan="magnify" viewBox="0 0 37.5 37.499999" height="37.499999" preserveAspectRatio="xMidYMid meet" version="1.0"><defs><clipPath id="clip-0"><path d="M 1 13.050781 L 36.9375 13.050781 L 36.9375 24.300781 L 1 24.300781 Z M 1 13.050781 " clip-rule="nonzero"/></clipPath></defs><g clip-path="url(#clip-0)"><path fill="rgb(14.118958%, 18.429565%, 18.03894%)" d="M 25.4375 24.292969 L 1.726562 24.292969 C 1.433594 24.292969 1.171875 24.121094 1.0625 23.855469 C 0.949219 23.59375 1.015625 23.289062 1.222656 23.089844 L 1.472656 22.847656 L 1.71875 22.035156 L 1.726562 21.472656 C 1.730469 21.300781 1.796875 21.132812 1.917969 21.007812 L 2.492188 20.398438 L 2.585938 19.941406 C 2.59375 19.90625 2.601562 19.875 2.617188 19.839844 L 3.882812 16.441406 L 3.882812 15.164062 C 3.882812 14.773438 4.203125 14.460938 4.601562 14.460938 L 10.347656 14.460938 C 10.347656 14.074219 10.671875 13.757812 11.066406 13.757812 L 34.484375 13.757812 L 34.992188 13.261719 C 35.125 13.128906 35.308594 13.054688 35.5 13.054688 L 36.21875 13.054688 C 36.613281 13.054688 36.9375 13.371094 36.9375 13.757812 L 36.9375 14.460938 C 36.9375 14.535156 36.925781 14.609375 36.898438 14.679688 L 36.609375 15.539062 C 36.566406 15.667969 36.492188 15.777344 36.386719 15.863281 L 35.757812 16.371094 L 35.390625 16.941406 C 35.257812 17.144531 35.027344 17.269531 34.78125 17.269531 L 34.261719 17.269531 L 33.820312 18.253906 C 33.742188 18.429688 33.59375 18.566406 33.40625 18.632812 C 33.222656 18.699219 33.019531 18.6875 32.839844 18.601562 L 32.324219 18.347656 L 32.039062 18.652344 L 31.863281 18.949219 C 31.785156 19.082031 31.664062 19.1875 31.515625 19.246094 L 30.609375 19.613281 L 29.675781 20.507812 C 29.589844 20.589844 29.488281 20.648438 29.378906 20.679688 L 28.550781 20.921875 L 27.871094 21.316406 L 27.707031 21.957031 C 27.636719 22.234375 27.402344 22.441406 27.113281 22.484375 L 26.660156 22.550781 L 26.542969 22.636719 L 26.113281 23.824219 C 26.015625 24.105469 25.742188 24.292969 25.4375 24.292969 Z M 25.4375 24.292969 " fill-opacity="1" fill-rule="nonzero"/></g></svg>