<?xml version="1.0" encoding="UTF-8"?><svg xmlns="http://www.w3.org/2000/svg" xmlns:xlink="http://www.w3.org/1999/xlink" width="37.5" zoomAndPan="magnify" viewBox="0 0 37.5 37.499999" height="37.499999" preserveAspectRatio="xMidYMid meet" version="1.0"><defs><clipPath id="clip-0"><path d="M 0.257812 1 L 37.007812 1 L 37.007812 36.246094 L 0.257812 36.246094 Z M 0.257812 1 " clip-rule="nonzero"/></clipPath></defs><g clip-path="url(#clip-0)"><path fill="rgb(14.118958%, 18.429565%, 18.03894%)" d="M 26.683594 36.214844 C 26.554688 36.214844 26.425781 36.183594 26.308594 36.109375 L 25.570312 35.667969 L 24.648438 35.484375 L 24.171875 35.484375 C 24.027344 35.484375 23.886719 35.441406 23.765625 35.363281 L 23.507812 35.191406 L 22.722656 35.113281 C 22.636719 35.105469 22.554688 35.082031 22.472656 35.042969 L 21.570312 34.605469 C 21.445312 34.542969 21.339844 34.449219 21.265625 34.332031 L 20.929688 33.792969 C 20.890625 33.730469 20.863281 33.664062 20.84375 33.59375 L 20.652344 32.882812 L 20.382812 32.640625 C 20.226562 32.5 20.136719 32.300781 20.136719 32.09375 L 20.136719 31.039062 L 19.949219 30.765625 L 19.707031 30.6875 C 19.558594 30.640625 19.433594 30.546875 19.339844 30.421875 L 18.355469 29.058594 L 17.632812 28.730469 C 17.371094 28.613281 17.203125 28.351562 17.203125 28.0625 L 17.199219 27.636719 L 16.789062 26.222656 L 16.644531 25.933594 L 15.375 25.21875 C 15.328125 25.191406 15.285156 25.160156 15.242188 25.125 L 14.535156 24.488281 L 12.289062 24.488281 L 11.699219 25.097656 L 10.839844 26.363281 C 10.675781 26.609375 10.375 26.730469 10.089844 26.671875 L 9.171875 26.488281 C 9.058594 26.464844 8.953125 26.417969 8.863281 26.347656 L 8.273438 25.882812 C 8.226562 25.847656 8.1875 25.804688 8.148438 25.757812 L 8.007812 25.574219 L 7.457031 25.390625 C 7.335938 25.347656 7.226562 25.277344 7.140625 25.183594 L 5.652344 23.507812 C 5.53125 23.375 5.464844 23.199219 5.464844 23.019531 L 5.464844 22.203125 L 4.945312 21.273438 C 4.914062 21.214844 4.886719 21.152344 4.871094 21.085938 L 4.855469 21.015625 C 4.761719 20.957031 4.683594 20.878906 4.625 20.785156 L 4.582031 20.710938 L 4.089844 20.539062 C 3.972656 20.5 3.867188 20.433594 3.785156 20.339844 L 3.585938 20.121094 L 2.523438 19.070312 C 2.460938 19.011719 2.410156 18.941406 2.375 18.863281 L 2.28125 18.664062 L 1.851562 18.488281 C 1.667969 18.414062 1.523438 18.269531 1.449219 18.085938 L 1.257812 17.605469 L 1.070312 17.46875 C 0.824219 17.421875 0.621094 17.257812 0.523438 17.03125 L 0.386719 16.707031 C 0.292969 16.480469 0.316406 16.222656 0.453125 16.019531 C 0.589844 15.8125 0.816406 15.691406 1.0625 15.691406 L 9.867188 15.691406 L 9.867188 1.761719 C 9.867188 1.355469 10.195312 1.027344 10.601562 1.027344 L 18.667969 1.027344 C 19.074219 1.027344 19.402344 1.355469 19.402344 1.761719 L 19.402344 7.539062 L 19.574219 7.625 L 20.136719 7.625 C 20.195312 7.625 20.253906 7.632812 20.3125 7.648438 L 21.046875 7.832031 C 21.324219 7.902344 21.535156 8.121094 21.589844 8.394531 L 22.386719 8.554688 C 22.574219 8.378906 22.851562 8.3125 23.105469 8.390625 L 23.667969 8.566406 C 23.800781 8.609375 23.921875 8.691406 24.011719 8.796875 L 24.210938 9.039062 C 24.394531 8.910156 24.628906 8.871094 24.851562 8.941406 L 25.484375 9.144531 C 25.6875 9.210938 25.847656 9.359375 25.933594 9.554688 L 25.953125 9.597656 L 26.355469 9.261719 C 26.488281 9.152344 26.65625 9.089844 26.828125 9.089844 L 28.019531 9.089844 C 28.207031 9.089844 28.382812 9.164062 28.519531 9.285156 L 28.992188 8.652344 C 29.132812 8.46875 29.347656 8.359375 29.582031 8.359375 L 32.605469 8.359375 C 32.773438 8.359375 32.933594 8.414062 33.0625 8.519531 L 33.78125 9.089844 L 34.257812 9.089844 C 34.636719 9.089844 34.957031 9.382812 34.988281 9.765625 L 35.351562 14.117188 L 35.542969 15.054688 L 35.855469 15.503906 C 35.910156 15.578125 35.945312 15.660156 35.96875 15.746094 L 36.101562 16.289062 L 36.652344 16.902344 C 36.71875 16.980469 36.769531 17.066406 36.800781 17.160156 L 36.96875 17.652344 C 36.992188 17.730469 37.007812 17.808594 37.007812 17.890625 L 37.007812 19.261719 C 37.007812 19.441406 36.941406 19.617188 36.820312 19.75 L 36.617188 19.980469 L 36.714844 20.050781 C 36.898438 20.1875 37.007812 20.40625 37.007812 20.636719 L 37.007812 22.5625 C 37.007812 22.882812 36.796875 23.167969 36.488281 23.261719 L 35.300781 23.628906 L 34.203125 24.269531 C 34.15625 24.375 34.085938 24.472656 33.996094 24.546875 L 33.355469 25.082031 L 32.085938 26.328125 C 32.058594 26.355469 32.027344 26.378906 31.996094 26.402344 L 31.261719 26.917969 L 29.585938 27.886719 L 28.582031 28.652344 C 28.507812 28.710938 28.417969 28.753906 28.324219 28.777344 L 28.128906 28.828125 L 27.78125 29.40625 C 27.773438 29.414062 27.769531 29.421875 27.765625 29.429688 C 27.828125 29.597656 27.832031 29.792969 27.757812 29.96875 L 27.179688 31.40625 C 27.15625 31.460938 27.128906 31.511719 27.09375 31.558594 L 26.738281 32.054688 L 26.738281 32.132812 L 26.804688 32.296875 L 27.394531 33.332031 C 27.414062 33.367188 27.429688 33.402344 27.441406 33.4375 L 27.628906 33.9375 L 27.929688 34.175781 C 28.097656 34.3125 28.195312 34.507812 28.203125 34.722656 C 28.210938 34.933594 28.128906 35.140625 27.972656 35.285156 L 27.183594 36.019531 C 27.046875 36.148438 26.867188 36.214844 26.683594 36.214844 Z M 26.683594 36.214844 " fill-opacity="1" fill-rule="nonzero"/></g></svg>