<?xml version="1.0" encoding="UTF-8"?><svg xmlns="http://www.w3.org/2000/svg" xmlns:xlink="http://www.w3.org/1999/xlink" width="37.5" zoomAndPan="magnify" viewBox="0 0 37.5 37.499999" height="37.499999" preserveAspectRatio="xMidYMid meet" version="1.0"><defs><clipPath id="clip-0"><path d="M 2.460938 1 L 34.710938 1 L 34.710938 36.246094 L 2.460938 36.246094 Z M 2.460938 1 " clip-rule="nonzero"/></clipPath></defs><g clip-path="url(#clip-0)"><path fill="rgb(14.118958%, 18.429565%, 18.03894%)" d="M 34.5 13.703125 C 34.363281 13.566406 34.175781 13.488281 33.980469 13.488281 L 33.613281 13.488281 C 33.339844 13.488281 33.21875 13.671875 33.21875 13.671875 L 30.917969 16.035156 C 30.894531 16.050781 30.871094 16.070312 30.847656 16.089844 L 29.808594 16.722656 L 29.527344 17.367188 C 29.503906 17.425781 29.464844 17.472656 29.414062 17.511719 L 28.933594 17.878906 L 28.503906 18.398438 C 28.449219 18.460938 28.371094 18.507812 28.289062 18.523438 L 27.832031 18.609375 C 27.808594 18.613281 27.785156 18.617188 27.765625 18.617188 C 27.640625 18.617188 27.527344 18.554688 27.457031 18.449219 C 27.378906 18.324219 27.378906 18.164062 27.464844 18.042969 L 29.21875 15.476562 C 29.246094 15.449219 29.269531 15.421875 29.296875 15.394531 L 30.136719 14.980469 C 30.179688 14.949219 30.214844 14.90625 30.246094 14.855469 L 30.96875 13.640625 C 31.019531 13.554688 31.050781 13.460938 31.054688 13.359375 C 31.058594 13.3125 31.054688 13.261719 31.042969 13.210938 L 30.632812 11.144531 C 30.589844 10.929688 30.453125 10.746094 30.265625 10.644531 L 29.449219 10.195312 L 29.0625 9.492188 C 28.96875 9.320312 28.8125 9.195312 28.628906 9.140625 L 24.222656 7.921875 L 23.476562 7.507812 C 23.441406 7.492188 23.402344 7.476562 23.367188 7.460938 L 20.65625 6.480469 C 20.625 6.472656 20.59375 6.460938 20.5625 6.453125 L 18.117188 5.925781 L 17.527344 5.019531 C 17.390625 4.8125 17.191406 4.6875 16.945312 4.6875 C 16.945312 4.6875 16.945312 4.6875 16.8125 4.6875 C 16.683594 4.6875 16.578125 4.6875 16.433594 4.503906 C 16.285156 4.308594 16.070312 4.03125 16.066406 4.023438 C 16.035156 3.984375 15.992188 3.953125 15.9375 3.953125 C 15.886719 3.953125 15.84375 3.976562 15.808594 4.007812 L 15.203125 4.621094 C 15.15625 4.664062 15.089844 4.6875 15.023438 4.6875 C 15.015625 4.6875 15.007812 4.6875 15 4.6875 C 14.929688 4.679688 14.859375 4.644531 14.8125 4.585938 L 14.535156 4.179688 C 14.472656 4.101562 14.460938 4 14.496094 3.90625 L 14.691406 3.429688 C 14.703125 3.398438 14.722656 3.371094 14.746094 3.347656 C 14.746094 3.347656 15.550781 2.144531 15.550781 2.140625 C 15.582031 2.097656 15.605469 2.046875 15.605469 1.988281 C 15.605469 1.90625 15.5625 1.835938 15.503906 1.785156 C 15.503906 1.785156 14.675781 1.167969 14.675781 1.167969 C 14.507812 1.042969 14.296875 0.996094 14.09375 1.035156 L 13.179688 1.21875 C 13.078125 1.238281 12.980469 1.28125 12.898438 1.339844 L 12.085938 1.917969 L 8.871094 3.222656 L 7.984375 3 L 7.574219 2.660156 C 7.308594 2.433594 6.917969 2.429688 6.648438 2.648438 L 5.734375 3.382812 C 5.5625 3.519531 5.460938 3.730469 5.460938 3.953125 L 5.460938 7.542969 L 5.257812 7.789062 L 3.742188 8.925781 C 3.652344 8.992188 3.578125 9.078125 3.527344 9.175781 L 2.617188 10.953125 C 2.484375 11.210938 2.515625 11.523438 2.695312 11.746094 L 3.265625 12.460938 L 3.265625 13.183594 L 2.75 13.703125 C 2.613281 13.839844 2.535156 14.027344 2.535156 14.222656 L 2.535156 17.886719 C 2.535156 18.074219 2.605469 18.253906 2.730469 18.390625 L 4.097656 19.855469 C 4.238281 20.003906 4.429688 20.089844 4.632812 20.089844 L 5.335938 20.089844 L 5.652344 20.863281 C 5.746094 21.085938 5.941406 21.25 6.179688 21.300781 L 6.996094 21.472656 L 7.863281 23.019531 C 7.917969 23.117188 7.992188 23.203125 8.085938 23.265625 L 10.25 24.761719 L 10.578125 25.257812 L 10.582031 28.902344 C 10.582031 29.101562 10.660156 29.292969 10.804688 29.429688 L 11.277344 29.886719 L 10.71875 30.664062 C 10.628906 30.789062 10.578125 30.9375 10.578125 31.09375 L 10.578125 32.191406 C 10.578125 32.3125 10.609375 32.429688 10.667969 32.539062 L 11.417969 33.925781 C 11.484375 34.046875 11.585938 34.148438 11.707031 34.214844 L 12.527344 34.667969 C 12.589844 34.691406 12.652344 34.714844 12.714844 34.738281 L 13.476562 34.917969 L 14.421875 35.976562 C 14.558594 36.132812 14.757812 36.222656 14.964844 36.222656 L 30.324219 36.222656 C 30.726562 36.222656 31.054688 35.894531 31.054688 35.488281 L 31.054688 34.023438 C 31.054688 33.910156 31.027344 33.796875 30.976562 33.695312 L 30.324219 32.382812 L 30.324219 30.355469 C 30.324219 30.210938 30.28125 30.070312 30.199219 29.949219 L 29.71875 29.226562 L 30.960938 27.050781 C 31.023438 26.941406 31.054688 26.816406 31.054688 26.6875 L 31.054688 24.265625 L 31.175781 23.960938 L 31.816406 23.386719 C 31.90625 23.304688 31.976562 23.199219 32.015625 23.085938 L 32.476562 21.800781 C 32.488281 21.71875 32.503906 21.636719 32.519531 21.554688 L 32.519531 19.542969 L 34.613281 15.695312 C 34.671875 15.585938 34.703125 15.46875 34.703125 15.347656 L 34.710938 14.226562 C 34.714844 14.03125 34.636719 13.84375 34.5 13.703125 Z M 34.5 13.703125 " fill-opacity="1" fill-rule="nonzero"/></g></svg>